<svg version="1.0" preserveAspectRatio="xMidYMid meet" viewBox="55.5 110.249997354 264 152.24999634600002" zoomAndPan="magnify" xmlns:xlink="http://www.w3.org/1999/xlink" xmlns="http://www.w3.org/2000/svg" style="max-height: 500px" width="264" height="152.24999634600002"><defs><g/><clipPath id="91cdcbf050"><path clip-rule="nonzero" d="M 107.230469 133.519531 L 305.226562 133.519531 L 305.226562 241.472656 L 107.230469 241.472656 Z M 107.230469 133.519531"/></clipPath><clipPath id="888fecc4eb"><path clip-rule="nonzero" d="M 88.390625 147.394531 L 130.203125 147.394531 L 130.203125 229.519531 L 88.390625 229.519531 Z M 88.390625 147.394531"/></clipPath><clipPath id="771295b048"><path clip-rule="nonzero" d="M 112.074219 192.492188 L 147.1875 192.492188 L 147.1875 227.605469 L 112.074219 227.605469 Z M 112.074219 192.492188"/></clipPath><clipPath id="df0bbc7261"><path clip-rule="nonzero" d="M 129.632812 192.492188 C 119.9375 192.492188 112.074219 200.351562 112.074219 210.050781 C 112.074219 219.746094 119.9375 227.605469 129.632812 227.605469 C 139.328125 227.605469 147.1875 219.746094 147.1875 210.050781 C 147.1875 200.351562 139.328125 192.492188 129.632812 192.492188 Z M 129.632812 192.492188"/></clipPath><clipPath id="7d3f7c0770"><path clip-rule="nonzero" d="M 69.496094 149.375 L 104.746094 149.375 L 104.746094 184.625 L 69.496094 184.625 Z M 69.496094 149.375"/></clipPath><clipPath id="947e62718d"><path clip-rule="nonzero" d="M 79.382812 149.511719 L 94.996094 149.511719 C 97.582031 149.511719 100.0625 150.539062 101.890625 152.367188 C 103.71875 154.195312 104.746094 156.675781 104.746094 159.261719 L 104.746094 174.875 C 104.746094 177.460938 103.71875 179.941406 101.890625 181.769531 C 100.0625 183.597656 97.582031 184.625 94.996094 184.625 L 79.382812 184.625 C 76.796875 184.625 74.316406 183.597656 72.488281 181.769531 C 70.660156 179.941406 69.632812 177.460938 69.632812 174.875 L 69.632812 159.261719 C 69.632812 156.675781 70.660156 154.195312 72.488281 152.367188 C 74.316406 150.539062 76.796875 149.511719 79.382812 149.511719 Z M 79.382812 149.511719"/></clipPath><clipPath id="892819c440"><path clip-rule="nonzero" d="M 112 150.957031 L 146.59375 150.957031 L 146.59375 183.886719 L 112 183.886719 Z M 112 150.957031"/></clipPath><clipPath id="48ff1e17c7"><path clip-rule="nonzero" d="M 132.160156 152.675781 L 146.113281 178.601562 C 146.710938 179.714844 146.683594 181.058594 146.035156 182.140625 C 145.386719 183.222656 144.21875 183.886719 142.957031 183.886719 L 115.671875 183.886719 C 114.410156 183.886719 113.242188 183.222656 112.597656 182.140625 C 111.949219 181.058594 111.917969 179.714844 112.515625 178.601562 L 126.472656 152.675781 C 127.035156 151.632812 128.128906 150.976562 129.316406 150.976562 C 130.503906 150.976562 131.597656 151.632812 132.160156 152.675781 Z M 132.160156 152.675781"/></clipPath><clipPath id="a08b9caef5"><path clip-rule="nonzero" d="M 69.632812 192.363281 L 107.75 192.363281 L 107.75 225.796875 L 69.632812 225.796875 Z M 69.632812 192.363281"/></clipPath><clipPath id="5b57385f61"><path clip-rule="nonzero" d="M 71.144531 197.808594 C 68.054688 202.894531 70.230469 207.84375 72.964844 210.46875 L 88.9375 225.796875 L 104.574219 210.523438 C 107.117188 207.699219 108.089844 204.703125 107.550781 201.363281 C 106.804688 196.75 103 193.167969 98.300781 192.65625 C 95.417969 192.34375 92.632812 193.160156 90.460938 194.964844 C 89.875 195.453125 89.351562 195.996094 88.898438 196.585938 C 88.355469 195.914062 87.722656 195.300781 87.003906 194.753906 C 84.507812 192.855469 81.324219 192.101562 78.269531 192.6875 C 75.375 193.246094 72.777344 195.113281 71.144531 197.808594 Z M 71.144531 197.808594"/></clipPath></defs><rect fill-opacity="1" height="449.999989" y="-37.499999" fill="#ffffff" width="450" x="-37.5"/><rect fill-opacity="1" height="449.999989" y="-37.499999" fill="#ffffff" width="450" x="-37.5"/><g clip-path="url(#91cdcbf050)"><path stroke-miterlimit="4" stroke-opacity="1" stroke-width="6" stroke="#000000" d="M -0.000511878 -0.000020243 L 264.166189 -0.000020243 L 264.166189 143.937498 L -0.000511878 143.937498 Z M -0.000511878 -0.000020243" stroke-linejoin="miter" fill="none" transform="matrix(0.75, 0, 0, 0.75, 107.230853, 133.519546)" stroke-linecap="butt"/></g><g clip-path="url(#888fecc4eb)"><path fill-rule="nonzero" fill-opacity="1" d="M 88.390625 147.394531 L 130.203125 147.394531 L 130.203125 229.550781 L 88.390625 229.550781 Z M 88.390625 147.394531" fill="#ffffff"/></g><g clip-path="url(#771295b048)"><g clip-path="url(#df0bbc7261)"><path fill-rule="nonzero" fill-opacity="1" d="M 112.074219 192.492188 L 147.1875 192.492188 L 147.1875 227.605469 L 112.074219 227.605469 Z M 112.074219 192.492188" fill="#ffde59"/></g></g><g clip-path="url(#7d3f7c0770)"><g clip-path="url(#947e62718d)"><path fill-rule="nonzero" fill-opacity="1" d="M 69.632812 149.511719 L 104.746094 149.511719 L 104.746094 184.625 L 69.632812 184.625 Z M 69.632812 149.511719" fill="#ff914d"/></g></g><g clip-path="url(#892819c440)"><g clip-path="url(#48ff1e17c7)"><path fill-rule="nonzero" fill-opacity="1" d="M 109.671875 147.394531 L 149.015625 147.394531 L 149.015625 183.886719 L 109.671875 183.886719 Z M 109.671875 147.394531" fill="#004aad"/></g></g><g clip-path="url(#a08b9caef5)"><g clip-path="url(#5b57385f61)"><path fill-rule="nonzero" fill-opacity="1" d="M 69.632812 192.492188 L 107.75 192.492188 L 107.75 225.796875 L 69.632812 225.796875 Z M 69.632812 192.492188" fill="#ff3131"/></g></g><g fill-opacity="1" fill="#000000"><g transform="translate(158.196894, 187.242689)"><g><path d="M 0.8125 3.21875 C 0.238281 3.21875 -0.144531 2.898438 -0.34375 2.265625 C -0.539062 1.628906 -0.640625 1.054688 -0.640625 0.546875 C -0.640625 -0.898438 -0.457031 -2.507812 -0.09375 -4.28125 C 0.269531 -6.050781 0.71875 -7.796875 1.25 -9.515625 C 1.78125 -11.242188 2.285156 -12.785156 2.765625 -14.140625 C 2.910156 -14.566406 3.050781 -14.96875 3.1875 -15.34375 C 3.332031 -15.71875 3.476562 -16.101562 3.625 -16.5 C 3.75 -16.832031 3.785156 -17.066406 3.734375 -17.203125 C 3.691406 -17.335938 3.535156 -17.40625 3.265625 -17.40625 L 2.90625 -17.40625 C 2.601562 -17.375 2.300781 -17.34375 2 -17.3125 C 1.695312 -17.28125 1.394531 -17.234375 1.09375 -17.171875 C 0.789062 -17.148438 0.476562 -17.113281 0.15625 -17.0625 C -0.15625 -17.019531 -0.460938 -16.984375 -0.765625 -16.953125 C -0.953125 -16.921875 -1.140625 -16.890625 -1.328125 -16.859375 C -1.523438 -16.828125 -1.71875 -16.8125 -1.90625 -16.8125 C -2.144531 -16.8125 -2.3125 -16.828125 -2.40625 -16.859375 C -2.550781 -16.890625 -2.65625 -16.984375 -2.71875 -17.140625 C -2.78125 -17.441406 -2.707031 -17.601562 -2.5 -17.625 C -2.375 -17.65625 -2.265625 -17.6875 -2.171875 -17.71875 C -2.085938 -17.75 -2 -17.78125 -1.90625 -17.8125 C -1.78125 -17.84375 -1.664062 -17.863281 -1.5625 -17.875 C -1.457031 -17.894531 -1.34375 -17.921875 -1.21875 -17.953125 C -0.800781 -18.015625 -0.390625 -18.070312 0.015625 -18.125 C 0.429688 -18.1875 0.832031 -18.234375 1.21875 -18.265625 C 1.644531 -18.328125 2.050781 -18.378906 2.4375 -18.421875 C 2.832031 -18.472656 3.226562 -18.515625 3.625 -18.546875 C 4.164062 -18.566406 4.546875 -18.820312 4.765625 -19.3125 L 5.984375 -22.03125 C 6.109375 -22.207031 6.210938 -22.382812 6.296875 -22.5625 C 6.390625 -22.75 6.5 -22.9375 6.625 -23.125 C 6.707031 -23.300781 6.800781 -23.476562 6.90625 -23.65625 C 7.019531 -23.84375 7.132812 -24.023438 7.25 -24.203125 C 7.582031 -24.742188 7.898438 -25.015625 8.203125 -25.015625 C 8.378906 -25.015625 8.515625 -24.910156 8.609375 -24.703125 C 8.671875 -24.398438 8.597656 -24.066406 8.390625 -23.703125 C 8.140625 -23.097656 7.867188 -22.492188 7.578125 -21.890625 C 7.296875 -21.285156 7.003906 -20.679688 6.703125 -20.078125 C 6.671875 -20.015625 6.640625 -19.9375 6.609375 -19.84375 C 6.585938 -19.757812 6.5625 -19.6875 6.53125 -19.625 C 6.4375 -19.445312 6.390625 -19.238281 6.390625 -19 C 6.515625 -18.96875 6.617188 -18.941406 6.703125 -18.921875 C 6.796875 -18.910156 6.890625 -18.90625 6.984375 -18.90625 C 7.097656 -18.90625 7.1875 -18.921875 7.25 -18.953125 C 7.3125 -18.953125 7.359375 -18.953125 7.390625 -18.953125 C 7.421875 -18.953125 7.453125 -18.953125 7.484375 -18.953125 C 8.117188 -19.003906 8.773438 -19.066406 9.453125 -19.140625 C 10.128906 -19.222656 10.847656 -19.296875 11.609375 -19.359375 C 12.359375 -19.421875 13.070312 -19.476562 13.75 -19.53125 C 14.4375 -19.59375 15.097656 -19.65625 15.734375 -19.71875 L 17.359375 -19.71875 C 17.566406 -19.71875 17.6875 -19.566406 17.71875 -19.265625 C 17.71875 -19.023438 17.628906 -18.875 17.453125 -18.8125 C 17.328125 -18.78125 17.21875 -18.753906 17.125 -18.734375 C 17.039062 -18.722656 16.953125 -18.71875 16.859375 -18.71875 C 16.765625 -18.6875 16.671875 -18.671875 16.578125 -18.671875 C 16.492188 -18.671875 16.390625 -18.65625 16.265625 -18.625 L 6.53125 -17.765625 C 5.863281 -17.703125 5.425781 -17.398438 5.21875 -16.859375 C 4.945312 -16.285156 4.617188 -15.460938 4.234375 -14.390625 C 3.859375 -13.316406 3.46875 -12.160156 3.0625 -10.921875 C 2.65625 -9.679688 2.285156 -8.503906 1.953125 -7.390625 C 1.617188 -6.273438 1.375 -5.382812 1.21875 -4.71875 C 1.039062 -3.957031 0.898438 -3.207031 0.796875 -2.46875 C 0.691406 -1.726562 0.609375 -0.96875 0.546875 -0.1875 C 0.515625 0.144531 0.488281 0.5 0.46875 0.875 C 0.457031 1.257812 0.617188 1.585938 0.953125 1.859375 C 1.285156 1.828125 1.585938 1.675781 1.859375 1.40625 C 1.984375 1.25 2.097656 1.101562 2.203125 0.96875 C 2.304688 0.832031 2.414062 0.707031 2.53125 0.59375 C 3.019531 -0.0078125 3.601562 -0.785156 4.28125 -1.734375 C 4.957031 -2.691406 5.648438 -3.671875 6.359375 -4.671875 C 7.078125 -5.671875 7.738281 -6.578125 8.34375 -7.390625 C 8.945312 -8.203125 9.414062 -8.773438 9.75 -9.109375 C 9.8125 -9.203125 9.882812 -9.289062 9.96875 -9.375 C 10.0625 -9.46875 10.140625 -9.5625 10.203125 -9.65625 C 10.347656 -9.800781 10.53125 -9.921875 10.75 -10.015625 C 10.769531 -10.015625 10.796875 -10.03125 10.828125 -10.0625 C 10.859375 -10.0625 10.875 -10.0625 10.875 -10.0625 C 10.875 -10.0625 10.890625 -10.0625 10.921875 -10.0625 C 10.953125 -10.0625 11.054688 -10.03125 11.234375 -9.96875 C 11.484375 -9.789062 11.53125 -9.566406 11.375 -9.296875 C 11.375 -9.203125 11.328125 -9.109375 11.234375 -9.015625 C 10.785156 -8.472656 10.191406 -7.703125 9.453125 -6.703125 C 8.710938 -5.710938 8.023438 -4.773438 7.390625 -3.890625 C 6.628906 -2.867188 5.851562 -1.835938 5.0625 -0.796875 C 4.28125 0.242188 3.53125 1.191406 2.8125 2.046875 C 2.601562 2.316406 2.304688 2.578125 1.921875 2.828125 C 1.546875 3.085938 1.175781 3.21875 0.8125 3.21875 Z M 0.8125 3.21875"/></g></g></g><g fill-opacity="1" fill="#000000"><g transform="translate(172.47571, 187.242689)"><g><path d="M 2.125 -1.90625 C 0.882812 -1.90625 0.113281 -2.460938 -0.1875 -3.578125 C -0.269531 -3.816406 -0.34375 -4.070312 -0.40625 -4.34375 C -0.46875 -4.625 -0.484375 -4.882812 -0.453125 -5.125 C -0.484375 -5.519531 -0.457031 -5.878906 -0.375 -6.203125 C -0.300781 -6.535156 -0.222656 -6.867188 -0.140625 -7.203125 C 0.128906 -7.929688 0.5 -8.707031 0.96875 -9.53125 C 1.4375 -10.363281 1.992188 -11.097656 2.640625 -11.734375 C 3.296875 -12.367188 4.019531 -12.75 4.8125 -12.875 C 4.894531 -12.875 4.953125 -12.890625 4.984375 -12.921875 C 5.015625 -12.921875 5.046875 -12.921875 5.078125 -12.921875 C 5.109375 -12.921875 5.140625 -12.921875 5.171875 -12.921875 C 5.617188 -12.921875 5.972656 -12.769531 6.234375 -12.46875 C 6.492188 -12.164062 6.59375 -11.753906 6.53125 -11.234375 C 6.40625 -10.515625 6.046875 -9.769531 5.453125 -9 C 4.867188 -8.226562 4.179688 -7.578125 3.390625 -7.046875 C 2.609375 -6.515625 1.859375 -6.207031 1.140625 -6.125 C 0.921875 -6.0625 0.796875 -5.925781 0.765625 -5.71875 C 0.648438 -5.226562 0.695312 -4.695312 0.90625 -4.125 C 1 -3.613281 1.171875 -3.3125 1.421875 -3.21875 C 1.679688 -3.125 2.023438 -3.078125 2.453125 -3.078125 C 3.359375 -3.265625 4.285156 -3.664062 5.234375 -4.28125 C 6.179688 -4.90625 6.988281 -5.519531 7.65625 -6.125 C 7.925781 -6.363281 8.195312 -6.617188 8.46875 -6.890625 C 8.75 -7.160156 9.023438 -7.414062 9.296875 -7.65625 C 9.535156 -7.894531 9.789062 -8.144531 10.0625 -8.40625 C 10.332031 -8.664062 10.601562 -8.914062 10.875 -9.15625 C 10.9375 -9.21875 11.007812 -9.285156 11.09375 -9.359375 C 11.1875 -9.429688 11.265625 -9.5 11.328125 -9.5625 C 11.390625 -9.625 11.457031 -9.691406 11.53125 -9.765625 C 11.613281 -9.835938 11.679688 -9.90625 11.734375 -9.96875 C 11.890625 -10.0625 12.015625 -10.109375 12.109375 -10.109375 C 12.222656 -10.109375 12.328125 -10.0625 12.421875 -9.96875 C 12.660156 -9.757812 12.707031 -9.535156 12.5625 -9.296875 C 12.53125 -9.203125 12.40625 -9.050781 12.1875 -8.84375 C 11.644531 -8.269531 10.960938 -7.585938 10.140625 -6.796875 C 9.328125 -6.015625 8.453125 -5.253906 7.515625 -4.515625 C 6.585938 -3.773438 5.65625 -3.15625 4.71875 -2.65625 C 3.78125 -2.15625 2.914062 -1.90625 2.125 -1.90625 Z M 1.71875 -7.484375 C 2.113281 -7.691406 2.585938 -8.003906 3.140625 -8.421875 C 3.703125 -8.847656 4.203125 -9.3125 4.640625 -9.8125 C 5.078125 -10.3125 5.296875 -10.800781 5.296875 -11.28125 C 5.273438 -11.582031 5.140625 -11.707031 4.890625 -11.65625 C 4.410156 -11.59375 3.925781 -11.332031 3.4375 -10.875 C 2.957031 -10.425781 2.535156 -9.910156 2.171875 -9.328125 C 1.804688 -8.753906 1.535156 -8.226562 1.359375 -7.75 C 1.359375 -7.601562 1.390625 -7.53125 1.453125 -7.53125 C 1.597656 -7.46875 1.6875 -7.453125 1.71875 -7.484375 Z M 1.71875 -7.484375"/></g></g></g><g fill-opacity="1" fill="#000000"><g transform="translate(187.97839, 187.242689)"><g><path d="M 2.859375 -1.859375 C 1.585938 -1.859375 0.703125 -2.195312 0.203125 -2.875 C -0.296875 -3.550781 -0.515625 -4.375 -0.453125 -5.34375 C -0.453125 -5.5 -0.441406 -5.628906 -0.421875 -5.734375 C -0.410156 -5.835938 -0.390625 -5.953125 -0.359375 -6.078125 C -0.0234375 -7.347656 0.445312 -8.507812 1.0625 -9.5625 C 1.6875 -10.625 2.492188 -11.59375 3.484375 -12.46875 C 4.035156 -12.914062 4.597656 -13.140625 5.171875 -13.140625 C 5.585938 -13.140625 6.015625 -13.019531 6.453125 -12.78125 C 6.890625 -12.539062 7.140625 -12.175781 7.203125 -11.6875 C 7.390625 -10.539062 7.085938 -9.484375 6.296875 -8.515625 C 6.234375 -8.429688 6.113281 -8.359375 5.9375 -8.296875 C 5.90625 -8.296875 5.890625 -8.296875 5.890625 -8.296875 C 5.890625 -8.265625 5.875 -8.25 5.84375 -8.25 C 5.632812 -8.25 5.53125 -8.335938 5.53125 -8.515625 C 5.5 -8.671875 5.53125 -8.820312 5.625 -8.96875 C 5.65625 -9.03125 5.679688 -9.097656 5.703125 -9.171875 C 5.734375 -9.253906 5.765625 -9.328125 5.796875 -9.390625 C 5.953125 -9.628906 6.066406 -9.890625 6.140625 -10.171875 C 6.210938 -10.460938 6.222656 -10.757812 6.171875 -11.0625 C 6.109375 -11.664062 5.816406 -11.96875 5.296875 -11.96875 C 5.054688 -11.96875 4.820312 -11.898438 4.59375 -11.765625 C 4.375 -11.628906 4.1875 -11.484375 4.03125 -11.328125 C 2.425781 -9.910156 1.351562 -8.113281 0.8125 -5.9375 C 0.300781 -3.96875 0.984375 -2.984375 2.859375 -2.984375 C 2.972656 -2.984375 3.0625 -3 3.125 -3.03125 C 3.1875 -3.03125 3.238281 -3.03125 3.28125 -3.03125 C 3.332031 -3.03125 3.375 -3.03125 3.40625 -3.03125 C 4.457031 -3.1875 5.507812 -3.539062 6.5625 -4.09375 C 7.625 -4.65625 8.578125 -5.222656 9.421875 -5.796875 C 9.816406 -6.097656 10.203125 -6.40625 10.578125 -6.71875 C 10.960938 -7.039062 11.347656 -7.351562 11.734375 -7.65625 C 12.128906 -7.957031 12.515625 -8.257812 12.890625 -8.5625 C 13.273438 -8.863281 13.660156 -9.164062 14.046875 -9.46875 C 14.109375 -9.53125 14.175781 -9.59375 14.25 -9.65625 C 14.332031 -9.71875 14.398438 -9.78125 14.453125 -9.84375 C 14.515625 -9.894531 14.582031 -9.941406 14.65625 -9.984375 C 14.738281 -10.035156 14.8125 -10.078125 14.875 -10.109375 C 15.050781 -10.171875 15.140625 -10.203125 15.140625 -10.203125 C 15.316406 -10.203125 15.453125 -10.125 15.546875 -9.96875 C 15.703125 -9.789062 15.703125 -9.566406 15.546875 -9.296875 C 15.515625 -9.234375 15.453125 -9.15625 15.359375 -9.0625 C 15.335938 -9.03125 15.300781 -8.992188 15.25 -8.953125 C 15.207031 -8.910156 15.171875 -8.875 15.140625 -8.84375 C 14.140625 -7.988281 13.132812 -7.15625 12.125 -6.34375 C 11.113281 -5.53125 10.046875 -4.757812 8.921875 -4.03125 C 7.992188 -3.425781 7.0625 -2.941406 6.125 -2.578125 C 5.1875 -2.222656 4.171875 -1.984375 3.078125 -1.859375 Z M 2.859375 -1.859375"/></g></g></g><g fill-opacity="1" fill="#000000"><g transform="translate(206.563377, 187.242689)"><g><path d="M 0.859375 1.453125 C 0.492188 1.453125 0.253906 1.253906 0.140625 0.859375 C 0.046875 0.492188 0 0.101562 0 -0.3125 C -0.0625 -1.1875 -0.046875 -2.046875 0.046875 -2.890625 C 0.140625 -3.742188 0.257812 -4.609375 0.40625 -5.484375 C 0.46875 -5.785156 0.53125 -6.078125 0.59375 -6.359375 C 0.65625 -6.648438 0.710938 -6.945312 0.765625 -7.25 C 0.828125 -7.519531 0.890625 -7.796875 0.953125 -8.078125 C 1.015625 -8.367188 1.0625 -8.664062 1.09375 -8.96875 C 1.125 -9.125 1.160156 -9.269531 1.203125 -9.40625 C 1.242188 -9.539062 1.28125 -9.671875 1.3125 -9.796875 C 1.375 -10.066406 1.328125 -10.367188 1.171875 -10.703125 C 1.117188 -10.878906 1.132812 -11.03125 1.21875 -11.15625 C 1.25 -11.207031 1.28125 -11.265625 1.3125 -11.328125 C 1.34375 -11.390625 1.375 -11.453125 1.40625 -11.515625 C 1.550781 -11.722656 1.6875 -11.941406 1.8125 -12.171875 C 1.9375 -12.398438 2.039062 -12.617188 2.125 -12.828125 C 2.1875 -13.066406 2.265625 -13.300781 2.359375 -13.53125 C 2.453125 -13.757812 2.539062 -13.992188 2.625 -14.234375 C 3.414062 -16.617188 4.40625 -19.023438 5.59375 -21.453125 C 6.789062 -23.890625 8.160156 -26.125 9.703125 -28.15625 C 9.765625 -28.207031 9.847656 -28.269531 9.953125 -28.34375 C 10.054688 -28.425781 10.171875 -28.5 10.296875 -28.5625 C 10.316406 -28.59375 10.359375 -28.609375 10.421875 -28.609375 C 10.722656 -28.609375 10.875 -28.484375 10.875 -28.234375 C 10.875 -28.179688 10.875 -28.125 10.875 -28.0625 C 10.875 -28 10.875 -27.9375 10.875 -27.875 C 10.875 -27.8125 10.863281 -27.75 10.84375 -27.6875 C 10.832031 -27.632812 10.8125 -27.578125 10.78125 -27.515625 C 10.757812 -27.390625 10.734375 -27.273438 10.703125 -27.171875 C 10.671875 -27.066406 10.625 -26.953125 10.5625 -26.828125 C 10.53125 -26.710938 10.488281 -26.597656 10.4375 -26.484375 C 10.394531 -26.378906 10.347656 -26.269531 10.296875 -26.15625 C 9.410156 -24.1875 8.492188 -22.265625 7.546875 -20.390625 C 6.597656 -18.523438 5.53125 -16.6875 4.34375 -14.875 C 3.894531 -14.175781 3.476562 -13.242188 3.09375 -12.078125 C 2.71875 -10.910156 2.382812 -9.671875 2.09375 -8.359375 C 1.8125 -7.046875 1.585938 -5.785156 1.421875 -4.578125 C 1.253906 -3.367188 1.171875 -2.375 1.171875 -1.59375 C 1.171875 -1.5 1.175781 -1.410156 1.1875 -1.328125 C 1.207031 -1.253906 1.234375 -1.144531 1.265625 -1 C 1.566406 -1.207031 1.765625 -1.429688 1.859375 -1.671875 C 1.921875 -1.796875 1.972656 -1.910156 2.015625 -2.015625 C 2.054688 -2.117188 2.109375 -2.234375 2.171875 -2.359375 C 2.472656 -2.992188 2.863281 -3.78125 3.34375 -4.71875 C 3.832031 -5.65625 4.363281 -6.601562 4.9375 -7.5625 C 5.507812 -8.53125 6.113281 -9.421875 6.75 -10.234375 C 7.382812 -11.054688 7.988281 -11.664062 8.5625 -12.0625 C 8.78125 -12.207031 9.007812 -12.28125 9.25 -12.28125 C 9.789062 -12.28125 10.109375 -11.976562 10.203125 -11.375 C 10.234375 -11.257812 10.253906 -11.15625 10.265625 -11.0625 C 10.285156 -10.96875 10.296875 -10.875 10.296875 -10.78125 C 10.265625 -10.664062 10.25 -10.5625 10.25 -10.46875 C 10.25 -10.375 10.25 -10.285156 10.25 -10.203125 C 10.25 -9.984375 10.25 -9.785156 10.25 -9.609375 C 10.25 -9.429688 10.25 -9.25 10.25 -9.0625 C 10.21875 -8.695312 10.21875 -8.335938 10.25 -7.984375 C 10.25 -7.859375 10.25 -7.75 10.25 -7.65625 C 10.25 -7.570312 10.25 -7.484375 10.25 -7.390625 C 10.25 -7.265625 10.253906 -7.15625 10.265625 -7.0625 C 10.285156 -6.976562 10.304688 -6.890625 10.328125 -6.796875 C 10.421875 -6.285156 10.632812 -6.03125 10.96875 -6.03125 C 11.144531 -6.03125 11.328125 -6.078125 11.515625 -6.171875 C 11.878906 -6.347656 12.367188 -6.644531 12.984375 -7.0625 C 13.609375 -7.488281 14.210938 -7.9375 14.796875 -8.40625 C 15.390625 -8.875 15.820312 -9.242188 16.09375 -9.515625 C 16.238281 -9.703125 16.40625 -9.867188 16.59375 -10.015625 C 16.65625 -10.078125 16.726562 -10.109375 16.8125 -10.109375 C 16.90625 -10.109375 16.96875 -10.09375 17 -10.0625 C 17.03125 -10.03125 17.050781 -10.015625 17.0625 -10.015625 C 17.082031 -10.015625 17.109375 -10 17.140625 -9.96875 C 17.316406 -9.820312 17.390625 -9.640625 17.359375 -9.421875 C 17.265625 -9.085938 16.9375 -8.664062 16.375 -8.15625 C 15.820312 -7.644531 15.175781 -7.128906 14.4375 -6.609375 C 13.695312 -6.097656 13 -5.671875 12.34375 -5.328125 C 11.695312 -4.984375 11.222656 -4.8125 10.921875 -4.8125 C 10.015625 -4.8125 9.441406 -5.351562 9.203125 -6.4375 C 9.109375 -6.882812 9.050781 -7.34375 9.03125 -7.8125 C 9.019531 -8.28125 9.03125 -8.757812 9.0625 -9.25 C 9.0625 -9.363281 9.0625 -9.46875 9.0625 -9.5625 C 9.0625 -9.65625 9.0625 -9.75 9.0625 -9.84375 C 9.0625 -9.925781 9.0625 -10.015625 9.0625 -10.109375 C 9.0625 -10.203125 9.046875 -10.304688 9.015625 -10.421875 C 9.015625 -10.546875 8.957031 -10.609375 8.84375 -10.609375 C 8.78125 -10.609375 8.734375 -10.59375 8.703125 -10.5625 C 8.578125 -10.5 8.46875 -10.421875 8.375 -10.328125 C 8.289062 -10.242188 8.21875 -10.171875 8.15625 -10.109375 C 7.15625 -8.992188 6.234375 -7.640625 5.390625 -6.046875 C 4.546875 -4.460938 3.804688 -3.003906 3.171875 -1.671875 C 3.023438 -1.335938 2.859375 -1.015625 2.671875 -0.703125 C 2.492188 -0.390625 2.3125 -0.0664062 2.125 0.265625 C 1.945312 0.691406 1.707031 1.007812 1.40625 1.21875 C 1.164062 1.375 0.984375 1.453125 0.859375 1.453125 Z M 6.34375 -20.3125 L 6.390625 -20.3125 L 6.390625 -20.359375 C 6.597656 -20.628906 6.6875 -20.867188 6.65625 -21.078125 C 6.632812 -20.921875 6.609375 -20.78125 6.578125 -20.65625 C 6.546875 -20.539062 6.46875 -20.425781 6.34375 -20.3125 Z M 6.75 -21.171875 L 7.03125 -21.390625 C 7 -21.359375 6.957031 -21.328125 6.90625 -21.296875 C 6.863281 -21.273438 6.8125 -21.234375 6.75 -21.171875 Z M 7.15625 -21.625 C 7.21875 -21.6875 7.25 -21.742188 7.25 -21.796875 C 7.25 -21.890625 7.265625 -21.953125 7.296875 -21.984375 Z M 7.15625 -21.625"/></g></g></g><g fill-opacity="1" fill="#000000"><g transform="translate(158.196894, 215.910998)"><g><path d="M 5.046875 -16.96875 L 9.9375 -4.1875 L 14.78125 -16.96875 L 18.71875 -16.96875 L 11.890625 0 L 7.703125 0 L 0.875 -16.96875 Z M 5.046875 -16.96875"/></g></g></g><g fill-opacity="1" fill="#000000"><g transform="translate(177.785711, 215.910998)"><g><path d="M 14.84375 -10.359375 C 14.78125 -10.960938 14.597656 -11.488281 14.296875 -11.9375 C 13.992188 -12.394531 13.617188 -12.78125 13.171875 -13.09375 C 12.734375 -13.40625 12.238281 -13.640625 11.6875 -13.796875 C 11.144531 -13.960938 10.597656 -14.046875 10.046875 -14.046875 C 9.484375 -14.046875 8.941406 -13.957031 8.421875 -13.78125 C 7.898438 -13.613281 7.421875 -13.367188 6.984375 -13.046875 C 6.554688 -12.734375 6.195312 -12.34375 5.90625 -11.875 C 5.613281 -11.414062 5.4375 -10.910156 5.375 -10.359375 Z M 17.5 -2.4375 C 16.476562 -1.414062 15.335938 -0.664062 14.078125 -0.1875 C 12.828125 0.28125 11.484375 0.515625 10.046875 0.515625 C 8.742188 0.515625 7.550781 0.289062 6.46875 -0.15625 C 5.382812 -0.613281 4.453125 -1.238281 3.671875 -2.03125 C 2.898438 -2.832031 2.296875 -3.78125 1.859375 -4.875 C 1.429688 -5.96875 1.21875 -7.164062 1.21875 -8.46875 C 1.21875 -9.726562 1.4375 -10.910156 1.875 -12.015625 C 2.320312 -13.117188 2.929688 -14.078125 3.703125 -14.890625 C 4.484375 -15.703125 5.414062 -16.335938 6.5 -16.796875 C 7.582031 -17.265625 8.765625 -17.5 10.046875 -17.5 C 11.898438 -17.5 13.550781 -17.019531 15 -16.0625 C 16.457031 -15.113281 17.523438 -13.769531 18.203125 -12.03125 C 18.503906 -11.28125 18.6875 -10.578125 18.75 -9.921875 C 18.820312 -9.273438 18.859375 -8.5625 18.859375 -7.78125 C 18.859375 -7.65625 18.851562 -7.53125 18.84375 -7.40625 C 18.832031 -7.28125 18.816406 -7.160156 18.796875 -7.046875 L 5.375 -7.046875 C 5.414062 -6.410156 5.566406 -5.847656 5.828125 -5.359375 C 6.097656 -4.878906 6.441406 -4.460938 6.859375 -4.109375 C 7.285156 -3.765625 7.773438 -3.503906 8.328125 -3.328125 C 8.890625 -3.148438 9.460938 -3.0625 10.046875 -3.0625 C 11.035156 -3.0625 11.945312 -3.210938 12.78125 -3.515625 C 13.625 -3.816406 14.414062 -4.304688 15.15625 -4.984375 Z M 17.5 -2.4375"/></g></g></g><g fill-opacity="1" fill="#000000"><g transform="translate(197.513947, 215.910998)"><g><path d="M 1.5625 -9.234375 C 1.5625 -10.378906 1.757812 -11.445312 2.15625 -12.4375 C 2.550781 -13.4375 3.113281 -14.3125 3.84375 -15.0625 C 4.582031 -15.820312 5.457031 -16.414062 6.46875 -16.84375 C 7.476562 -17.28125 8.609375 -17.5 9.859375 -17.5 C 11.117188 -17.5 12.253906 -17.28125 13.265625 -16.84375 C 14.273438 -16.414062 15.144531 -15.820312 15.875 -15.0625 C 16.601562 -14.3125 17.164062 -13.4375 17.5625 -12.4375 C 17.957031 -11.445312 18.15625 -10.378906 18.15625 -9.234375 L 18.15625 0 L 14.328125 0 L 14.328125 -8.578125 C 14.328125 -9.316406 14.242188 -10 14.078125 -10.625 C 13.921875 -11.257812 13.664062 -11.804688 13.3125 -12.265625 C 12.96875 -12.734375 12.507812 -13.097656 11.9375 -13.359375 C 11.363281 -13.628906 10.671875 -13.765625 9.859375 -13.765625 C 9.046875 -13.765625 8.351562 -13.628906 7.78125 -13.359375 C 7.21875 -13.097656 6.757812 -12.734375 6.40625 -12.265625 C 6.0625 -11.804688 5.804688 -11.257812 5.640625 -10.625 C 5.484375 -10 5.40625 -9.316406 5.40625 -8.578125 L 5.40625 0 L 1.5625 0 Z M 1.5625 -9.234375"/></g></g></g><g fill-opacity="1" fill="#000000"><g transform="translate(217.242183, 215.910998)"><g><path d="M 1.75 -24.359375 L 5.578125 -24.359375 L 5.578125 -16.96875 L 10.734375 -16.96875 L 10.734375 -13.25 L 5.578125 -13.25 L 5.578125 -8.4375 C 5.578125 -6.8125 6.050781 -5.617188 7 -4.859375 C 7.957031 -4.109375 9.203125 -3.734375 10.734375 -3.734375 L 10.734375 0 C 10.128906 0 9.515625 -0.0234375 8.890625 -0.078125 C 8.265625 -0.140625 7.648438 -0.265625 7.046875 -0.453125 C 6.160156 -0.734375 5.382812 -1.144531 4.71875 -1.6875 C 4.0625 -2.238281 3.507812 -2.875 3.0625 -3.59375 C 2.625 -4.3125 2.296875 -5.09375 2.078125 -5.9375 C 1.859375 -6.789062 1.75 -7.644531 1.75 -8.5 Z M 1.75 -24.359375"/></g></g></g><g fill-opacity="1" fill="#000000"><g transform="translate(228.674808, 215.910998)"><g><path d="M 1.5625 -7.734375 L 1.5625 -16.96875 L 5.40625 -16.96875 L 5.40625 -8.40625 C 5.40625 -7.6875 5.484375 -7.003906 5.640625 -6.359375 C 5.804688 -5.722656 6.0625 -5.171875 6.40625 -4.703125 C 6.757812 -4.242188 7.21875 -3.878906 7.78125 -3.609375 C 8.351562 -3.335938 9.046875 -3.203125 9.859375 -3.203125 C 10.671875 -3.203125 11.363281 -3.335938 11.9375 -3.609375 C 12.507812 -3.878906 12.96875 -4.242188 13.3125 -4.703125 C 13.664062 -5.171875 13.921875 -5.722656 14.078125 -6.359375 C 14.242188 -7.003906 14.328125 -7.6875 14.328125 -8.40625 L 14.328125 -16.96875 L 18.15625 -16.96875 L 18.15625 -7.734375 C 18.15625 -6.597656 17.957031 -5.53125 17.5625 -4.53125 C 17.164062 -3.53125 16.601562 -2.648438 15.875 -1.890625 C 15.144531 -1.140625 14.273438 -0.550781 13.265625 -0.125 C 12.253906 0.300781 11.117188 0.515625 9.859375 0.515625 C 8.609375 0.515625 7.476562 0.300781 6.46875 -0.125 C 5.457031 -0.550781 4.582031 -1.140625 3.84375 -1.890625 C 3.113281 -2.648438 2.550781 -3.53125 2.15625 -4.53125 C 1.757812 -5.53125 1.5625 -6.597656 1.5625 -7.734375 Z M 1.5625 -7.734375"/></g></g></g><g fill-opacity="1" fill="#000000"><g transform="translate(248.403045, 215.910998)"><g><path d="M 1.75 -8.46875 C 1.75 -9.863281 1.960938 -11.09375 2.390625 -12.15625 C 2.816406 -13.226562 3.425781 -14.125 4.21875 -14.84375 C 5.007812 -15.570312 5.957031 -16.113281 7.0625 -16.46875 C 8.164062 -16.832031 9.390625 -17.015625 10.734375 -17.015625 L 10.734375 -13.28125 C 9.203125 -13.28125 7.957031 -12.890625 7 -12.109375 C 6.050781 -11.335938 5.578125 -10.148438 5.578125 -8.546875 L 5.578125 0 L 1.75 0 Z M 1.75 -8.46875"/></g></g></g><g fill-opacity="1" fill="#000000"><g transform="translate(259.835669, 215.910998)"><g><path d="M 10.25 -3.28125 C 10.988281 -3.28125 11.675781 -3.410156 12.3125 -3.671875 C 12.957031 -3.941406 13.507812 -4.304688 13.96875 -4.765625 C 14.4375 -5.234375 14.804688 -5.78125 15.078125 -6.40625 C 15.347656 -7.039062 15.484375 -7.726562 15.484375 -8.46875 C 15.484375 -9.21875 15.351562 -9.914062 15.09375 -10.5625 C 14.832031 -11.207031 14.46875 -11.769531 14 -12.25 C 13.539062 -12.726562 12.992188 -13.097656 12.359375 -13.359375 C 11.722656 -13.628906 11.019531 -13.765625 10.25 -13.765625 C 9.507812 -13.765625 8.820312 -13.625 8.1875 -13.34375 C 7.5625 -13.070312 7.015625 -12.695312 6.546875 -12.21875 C 6.085938 -11.738281 5.722656 -11.179688 5.453125 -10.546875 C 5.179688 -9.910156 5.046875 -9.21875 5.046875 -8.46875 C 5.046875 -7.75 5.179688 -7.066406 5.453125 -6.421875 C 5.722656 -5.785156 6.085938 -5.234375 6.546875 -4.765625 C 7.015625 -4.304688 7.566406 -3.941406 8.203125 -3.671875 C 8.847656 -3.410156 9.53125 -3.28125 10.25 -3.28125 Z M 15.546875 0 L 15.546875 -1.671875 C 14.734375 -0.898438 13.847656 -0.351562 12.890625 -0.03125 C 11.941406 0.289062 10.910156 0.453125 9.796875 0.453125 C 8.515625 0.453125 7.347656 0.222656 6.296875 -0.234375 C 5.253906 -0.703125 4.351562 -1.335938 3.59375 -2.140625 C 2.84375 -2.941406 2.257812 -3.882812 1.84375 -4.96875 C 1.425781 -6.050781 1.21875 -7.21875 1.21875 -8.46875 C 1.21875 -9.75 1.441406 -10.9375 1.890625 -12.03125 C 2.347656 -13.125 2.976562 -14.078125 3.78125 -14.890625 C 4.582031 -15.703125 5.535156 -16.335938 6.640625 -16.796875 C 7.742188 -17.265625 8.9375 -17.5 10.21875 -17.5 C 11.488281 -17.5 12.675781 -17.269531 13.78125 -16.8125 C 14.882812 -16.363281 15.847656 -15.742188 16.671875 -14.953125 C 17.503906 -14.160156 18.15625 -13.21875 18.625 -12.125 C 19.101562 -11.039062 19.34375 -9.867188 19.34375 -8.609375 L 19.34375 0 Z M 15.546875 0"/></g></g></g></svg>